<svg width="0" height="0" class="hidden">
  <symbol id="desktop" xmlns="http://www.w3.org/2000/svg" viewBox="0 0 24 24">
    <path fill-rule="evenodd" d="M11,18 L5,18 C3.34314575,18 2,16.6568542 2,15 L2,5 C2,3.34314575 3.34314575,2 5,2 L19,2 C20.6568542,2 22,3.34314575 22,5 L22,15 C22,16.6568542 20.6568542,18 19,18 L13,18 L13,20 L15,20 C15.5522847,20 16,20.4477153 16,21 C16,21.5522847 15.5522847,22 15,22 L9,22 C8.44771525,22 8,21.5522847 8,21 C8,20.4477153 8.44771525,20 9,20 L11,20 L11,18 Z M19,4 L5,4 C4.44771525,4 4,4.44771525 4,5 L4,15 C4,15.5522847 4.44771525,16 5,16 L19,16 C19.5522847,16 20,15.5522847 20,15 L20,5 C20,4.44771525 19.5522847,4 19,4 Z"></path>
  </symbol>
  <symbol id="comment" xmlns="http://www.w3.org/2000/svg" viewBox="0 0 24 24">
    <path fill-rule="evenodd" d="M19,2 C20.5949286,2 21.9034643,3.25157398 21.9948968,4.82401157 L22,5 L22,15 C22,16.5949286 20.748426,17.9034643 19.1759884,17.9948968 L19,18 L15.5,18 L12.8,21.6 C12.611,21.852 12.315,22 12,22 C11.724375,22 11.4632969,21.8866875 11.2757187,21.6895391 L11.2,21.6 L8.5,18 L5,18 C3.40507143,18 2.09653571,16.748426 2.00510323,15.1759884 L2,15 L2,5 C2,3.40507143 3.25157398,2.09653571 4.82401157,2.00510323 L5,2 L19,2 Z M19,4 L5,4 C4.48835714,4 4.06466327,4.38714796 4.00674599,4.88361625 L4,5 L4,15 C4,15.5116429 4.38714796,15.9353367 4.88361625,15.993254 L5,16 L9,16 C9.275625,16 9.53670313,16.1133125 9.72428125,16.3104609 L9.8,16.4 L12,19.333 L14.2,16.4 C14.365375,16.1795 14.6126719,16.038625 14.8829375,16.0068516 L15,16 L19,16 C19.5116429,16 19.9353367,15.612852 19.993254,15.1163837 L20,15 L20,5 C20,4.48835714 19.612852,4.06466327 19.1163837,4.00674599 L19,4 Z M17,11 C17.552,11 18,11.448 18,12 C18,12.5125714 17.6137143,12.9354694 17.1165685,12.9932682 L17,13 L7,13 C6.448,13 6,12.552 6,12 C6,11.4874286 6.38628571,11.0645306 6.88343149,11.0067318 L7,11 L17,11 Z M17,7 C17.552,7 18,7.448 18,8 C18,8.51257143 17.6137143,8.93546939 17.1165685,8.99326822 L17,9 L7,9 C6.448,9 6,8.552 6,8 C6,7.48742857 6.38628571,7.06453061 6.88343149,7.00673178 L7,7 L17,7 Z"></path>
  </symbol>
  <symbol id="comment-add" xmlns="http://www.w3.org/2000/svg" viewBox="0 0 24 24">
    <path fill-rule="evenodd" d="M19,2 C20.5949286,2 21.9034643,3.25157398 21.9948968,4.82401157 L22,5 L22,15 C22,16.5949286 20.748426,17.9034643 19.1759884,17.9948968 L19,18 L15.5,18 L12.8,21.6 C12.611,21.852 12.315,22 12,22 C11.724375,22 11.4632969,21.8866875 11.2757187,21.6895391 L11.2,21.6 L8.5,18 L5,18 C3.40507143,18 2.09653571,16.748426 2.00510323,15.1759884 L2,15 L2,5 C2,3.40507143 3.25157398,2.09653571 4.82401157,2.00510323 L5,2 L19,2 Z M19,4 L5,4 C4.48835714,4 4.06466327,4.38714796 4.00674599,4.88361625 L4,5 L4,15 C4,15.5116429 4.38714796,15.9353367 4.88361625,15.993254 L5,16 L9,16 C9.275625,16 9.53670313,16.1133125 9.72428125,16.3104609 L9.8,16.4 L12,19.333 L14.2,16.4 C14.365375,16.1795 14.6126719,16.038625 14.8829375,16.0068516 L15,16 L19,16 C19.5116429,16 19.9353367,15.612852 19.993254,15.1163837 L20,15 L20,5 C20,4.48835714 19.612852,4.06466327 19.1163837,4.00674599 L19,4 Z M12,6 C12.5125714,6 12.9354694,6.38628571 12.9932682,6.88343149 L13,7 L13,9 L15,9 C15.5125714,9 15.9354694,9.38628571 15.9932682,9.88343149 L16,10 C16,10.5125714 15.6137143,10.9354694 15.1165685,10.9932682 L15,11 L13,11 L13,13 C13,13.5125714 12.6137143,13.9354694 12.1165685,13.9932682 L12,14 C11.4874286,14 11.0645306,13.6137143 11.0067318,13.1165685 L11,13 L11,11 L9,11 C8.48742857,11 8.06453061,10.6137143 8.00673178,10.1165685 L8,10 C8,9.48742857 8.38628571,9.06453061 8.88343149,9.00673178 L9,9 L11,9 L11,7 C11,6.48742857 11.3862857,6.06453061 11.8834315,6.00673178 L12,6 Z"></path>
  </symbol>
  <symbol id="brightness-low" xmlns="http://www.w3.org/2000/svg" viewBox="0 0 24 24">
    <path d="M12.6128994,2.20970461 L12.7071068,2.29289322 L15.415,5 L18,5 C18.5128358,5 18.9355072,5.38604019 18.9932723,5.88337887 L19,6 L19,8.585 L21.7071068,11.2928932 C22.0675907,11.6533772 22.0953203,12.2206082 21.7902954,12.6128994 L21.7071068,12.7071068 L19,15.414 L19,18 C19,18.5128358 18.6139598,18.9355072 18.1166211,18.9932723 L18,19 L15.414,19 L12.7071068,21.7071068 C12.3466228,22.0675907 11.7793918,22.0953203 11.3871006,21.7902954 L11.2928932,21.7071068 L8.585,19 L6,19 C5.48716416,19 5.06449284,18.6139598 5.00672773,18.1166211 L5,18 L5,15.415 L2.29289322,12.7071068 C1.93240926,12.3466228 1.90467972,11.7793918 2.20970461,11.3871006 L2.29289322,11.2928932 L5,8.584 L5,6 C5,5.48716416 5.38604019,5.06449284 5.88337887,5.00672773 L6,5 L8.584,5 L11.2928932,2.29289322 C11.6233369,1.96244959 12.1275055,1.91161211 12.5114029,2.14038077 L12.6128994,2.20970461 Z M12,7 C9.23857625,7 7,9.23857625 7,12 C7,14.7614237 9.23857625,17 12,17 C14.7614237,17 17,14.7614237 17,12 C17,9.23857625 14.7614237,7 12,7 Z"></path>
  </symbol>
  <symbol id="chevron-right" xmlns="http://www.w3.org/2000/svg" viewBox="0 0 24 24">
    <path fill-rule="evenodd" d="M16,21 C15.744,21 15.488,20.902 15.293,20.707 L7.293,12.707 C6.902,12.316 6.902,11.684 7.293,11.293 L15.293,3.293 C15.684,2.902 16.316,2.902 16.707,3.293 C17.098,3.684 17.098,4.316 16.707,4.707 L9.414,12 L16.707,19.293 C17.098,19.684 17.098,20.316 16.707,20.707 C16.512,20.902 16.256,21 16,21" transform="matrix(-1 0 0 1 24 0)"></path>
  </symbol>
  <symbol id="chevron-left" xmlns="http://www.w3.org/2000/svg" viewBox="0 0 333.35 600.01">
    <path d="M533.33,700a33.34,33.34,0,0,0,23.57-56.9L313.8,400,556.9,156.9a33.33,33.33,0,1,0-47.13-47.13L243.1,376.43a33.31,33.31,0,0,0,0,47.14L509.77,690.23A33.24,33.24,0,0,0,533.33,700" transform="translate(-233.32 -99.99)"></path>
  </symbol>
  <symbol id="chevron-right" xmlns="http://www.w3.org/2000/svg" viewBox="0 0 333.35 600.01">
    <path d="M266.67,700a33.24,33.24,0,0,0,23.56-9.77L556.9,423.57a33.31,33.31,0,0,0,0-47.14L290.23,109.77A33.33,33.33,0,0,0,243.1,156.9L486.2,400,243.1,643.1A33.34,33.34,0,0,0,266.67,700" transform="translate(-233.32 -99.99)"></path>
  </symbol>
</svg>